<svg width="172" height="254" viewBox="0 0 172 254" fill="none" xmlns="http://www.w3.org/2000/svg">
<path d="M105.555 38.0061C116.21 29.6182 119.765 17.2514 116.21 0.900024H55.7897C47.9527 16.9002 49.9618 29.7419 66.4453 38.0061H105.555Z" fill="#E95454"/>
<path d="M80.2395 85.9868L55.7925 0.900024L9.42749 30.9951L31.5703 106.247L80.2395 85.9868Z" fill="#ED6362"/>
<path d="M140.43 106.247L162.573 30.9951L116.208 0.900024L91.7886 85.9868L140.43 106.247Z" fill="#ED6362"/>
<path d="M86 253.8C133.121 253.8 171.32 215.601 171.32 168.48C171.32 121.359 133.121 83.1572 86 83.1572C57.8916 141.375 55.652 198.362 86 253.8Z" fill="#B1B1B1"/>
<path d="M86 253.8C38.8791 253.8 0.679993 215.601 0.679993 168.48C0.679993 121.359 38.8791 83.1572 86 83.1572V253.713" fill="#C1C1C1"/>
<path d="M64.6496 225.197C64.3012 225.197 63.9471 225.132 63.6043 224.998C48.509 219.015 36.6452 207.511 30.2018 192.607C23.7585 177.7 23.5028 161.177 29.4853 146.081C30.0642 144.62 31.7136 143.909 33.1776 144.485C34.636 145.064 35.3526 146.717 34.7737 148.178C29.3504 161.862 29.5808 176.84 35.4228 190.35C41.2648 203.864 52.0159 214.289 65.6978 219.709C67.159 220.288 67.8727 221.94 67.2938 223.401C66.8527 224.517 65.7821 225.197 64.6496 225.197Z" fill="#858585"/>
<path d="M139.873 192.674C139.522 192.674 139.171 192.609 138.825 192.475C137.364 191.896 136.65 190.243 137.229 188.782C148.421 160.536 134.548 128.449 106.302 117.254C104.841 116.675 104.127 115.023 104.706 113.561C105.285 112.1 106.937 111.389 108.399 111.965C139.561 124.315 154.868 159.716 142.518 190.879C142.076 191.994 141.003 192.674 139.873 192.674Z" fill="#858585"/>
<path d="M112.847 200.442V212.493H59.4996V202.21L84.7273 175.161C87.2625 172.34 89.2622 169.858 90.7262 167.716C92.1902 165.538 93.2436 163.591 93.8863 161.877C94.5648 160.128 94.904 158.467 94.904 156.896C94.904 154.539 94.5112 152.522 93.7257 150.844C92.9401 149.13 91.7796 147.809 90.2441 146.88C88.7444 145.952 86.8876 145.488 84.6737 145.488C82.317 145.488 80.2816 146.059 78.5676 147.202C76.8894 148.344 75.6039 149.933 74.7112 151.969C73.8542 154.004 73.4257 156.307 73.4257 158.878H57.9463C57.9463 154.236 59.0533 149.987 61.2672 146.13C63.4811 142.238 66.6055 139.149 70.6405 136.864C74.6755 134.543 79.4603 133.383 84.9951 133.383C90.4584 133.383 95.0647 134.275 98.814 136.061C102.599 137.81 105.456 140.346 107.384 143.666C109.348 146.952 110.33 150.879 110.33 155.45C110.33 158.021 109.919 160.538 109.098 163.002C108.277 165.43 107.098 167.859 105.563 170.287C104.063 172.679 102.242 175.107 100.1 177.571C97.957 180.035 95.5825 182.588 92.9758 185.23L79.4246 200.442H112.847Z" fill="#858585"/>
</svg>
