<svg width="172" height="253" viewBox="0 0 172 253" fill="none" xmlns="http://www.w3.org/2000/svg">
<path d="M105.555 37.106C116.21 28.7182 119.765 16.3514 116.21 0H55.7897C47.9527 16.0001 49.9618 28.8418 66.4453 37.106H105.555Z" fill="#E95454"/>
<path d="M80.2395 85.0868L55.7925 0L9.42749 30.0951L31.5703 105.347L80.2395 85.0868Z" fill="#ED6362"/>
<path d="M140.43 105.347L162.573 30.0951L116.208 0L91.7886 85.0868L140.43 105.347Z" fill="#ED6362"/>
<path d="M86 252.9C133.121 252.9 171.32 214.701 171.32 167.58C171.32 120.459 133.121 82.2571 86 82.2571C57.8916 140.475 55.652 197.462 86 252.9Z" fill="#FFE14B"/>
<path d="M86 252.9C38.8791 252.9 0.679993 214.701 0.679993 167.58C0.679993 120.459 38.8791 82.2571 86 82.2571V252.813" fill="#FFD606"/>
<path d="M64.6496 224.297C64.3012 224.297 63.9471 224.232 63.6043 224.097C48.509 218.115 36.6452 206.611 30.2018 191.707C23.7585 176.8 23.5028 160.277 29.4853 145.181C30.0642 143.72 31.7136 143.009 33.1776 143.585C34.636 144.164 35.3526 145.817 34.7737 147.278C29.3504 160.962 29.5808 175.94 35.4228 189.45C41.2648 202.963 52.0159 213.389 65.6978 218.809C67.159 219.388 67.8727 221.04 67.2938 222.501C66.8527 223.617 65.7821 224.297 64.6496 224.297Z" fill="#B69800"/>
<path d="M139.873 191.774C139.522 191.774 139.171 191.709 138.825 191.575C137.364 190.996 136.65 189.343 137.229 187.882C148.421 159.636 134.548 127.549 106.302 116.354C104.841 115.775 104.127 114.123 104.706 112.661C105.285 111.2 106.937 110.489 108.399 111.065C139.561 123.415 154.868 158.816 142.518 189.978C142.076 191.094 141.003 191.774 139.873 191.774Z" fill="#B69800"/>
<path d="M97.1001 133.447V211.593H81.6742V151.229L63.1418 157.121V144.962L95.4396 133.447H97.1001Z" fill="#B69800"/>
</svg>
