<svg width="172" height="254" viewBox="0 0 172 254" fill="none" xmlns="http://www.w3.org/2000/svg">
<path d="M105.555 37.9061C116.21 29.5182 119.765 17.1514 116.21 0.800049H55.7897C47.9527 16.8002 49.9618 29.6419 66.4453 37.9061H105.555Z" fill="#E95454"/>
<path d="M80.2395 85.8868L55.7925 0.800049L9.42749 30.8951L31.5703 106.147L80.2395 85.8868Z" fill="#ED6362"/>
<path d="M140.43 106.147L162.573 30.8951L116.208 0.800049L91.7886 85.8868L140.43 106.147Z" fill="#ED6362"/>
<path d="M86 253.7C133.121 253.7 171.32 215.501 171.32 168.38C171.32 121.259 133.121 83.0572 86 83.0572C57.8916 141.275 55.652 198.262 86 253.7Z" fill="#F6C297"/>
<path d="M86 253.7C38.8791 253.7 0.679993 215.501 0.679993 168.38C0.679993 121.259 38.8791 83.0572 86 83.0572V253.613" fill="#E7AC7B"/>
<path d="M64.6496 225.097C64.3012 225.097 63.9471 225.032 63.6043 224.898C48.509 218.915 36.6452 207.411 30.2018 192.507C23.7585 177.6 23.5028 161.077 29.4853 145.981C30.0642 144.52 31.7136 143.809 33.1776 144.385C34.636 144.964 35.3526 146.617 34.7737 148.078C29.3504 161.762 29.5808 176.74 35.4228 190.25C41.2648 203.764 52.0159 214.189 65.6978 219.609C67.159 220.188 67.8727 221.84 67.2938 223.301C66.8527 224.417 65.7821 225.097 64.6496 225.097Z" fill="#CF772D"/>
<path d="M139.873 192.574C139.522 192.574 139.171 192.509 138.825 192.375C137.364 191.796 136.65 190.143 137.229 188.682C148.421 160.436 134.548 128.349 106.302 117.154C104.841 116.575 104.127 114.923 104.706 113.461C105.285 112 106.937 111.289 108.399 111.865C139.561 124.215 154.868 159.616 142.518 190.779C142.076 191.894 141.003 192.574 139.873 192.574Z" fill="#CF772D"/>
<path d="M75.3004 166.705H83.5489C86.1913 166.705 88.3695 166.259 90.0834 165.366C91.7974 164.438 93.0651 163.152 93.8863 161.51C94.7433 159.831 95.1718 157.885 95.1718 155.671C95.1718 153.672 94.779 151.904 93.9935 150.369C93.2436 148.798 92.0831 147.584 90.5119 146.727C88.9408 145.834 86.959 145.388 84.5666 145.388C82.6741 145.388 80.9244 145.762 79.3175 146.512C77.7107 147.262 76.4252 148.316 75.4611 149.673C74.4969 151.029 74.0149 152.672 74.0149 154.6H58.5355C58.5355 150.315 59.6782 146.584 61.9635 143.406C64.2845 140.228 67.3911 137.746 71.2832 135.961C75.1754 134.175 79.4603 133.283 84.1381 133.283C89.4229 133.283 94.047 134.14 98.0106 135.854C101.974 137.532 105.063 140.014 107.277 143.299C109.491 146.584 110.598 150.654 110.598 155.511C110.598 157.975 110.026 160.367 108.884 162.688C107.741 164.973 106.098 167.044 103.956 168.901C101.849 170.722 99.2782 172.186 96.2431 173.293C93.2079 174.365 89.7978 174.9 86.0127 174.9H75.3004V166.705ZM75.3004 178.435V170.455H86.0127C90.262 170.455 93.9935 170.937 97.2072 171.901C100.421 172.865 103.117 174.257 105.295 176.079C107.473 177.864 109.116 179.989 110.223 182.452C111.33 184.881 111.883 187.576 111.883 190.54C111.883 194.182 111.187 197.432 109.794 200.288C108.402 203.109 106.438 205.502 103.902 207.466C101.403 209.43 98.4748 210.929 95.1183 211.965C91.7617 212.965 88.1017 213.465 84.1381 213.465C80.853 213.465 77.6214 213.018 74.4434 212.126C71.3011 211.197 68.4445 209.822 65.8735 208.001C63.3382 206.145 61.3029 203.824 59.7674 201.038C58.2677 198.217 57.5178 194.879 57.5178 191.022H72.9972C72.9972 193.022 73.4971 194.807 74.4969 196.378C75.4968 197.95 76.8715 199.182 78.6212 200.074C80.4066 200.967 82.3884 201.413 84.5666 201.413C87.0304 201.413 89.1372 200.967 90.8869 200.074C92.6723 199.146 94.0292 197.86 94.9576 196.218C95.9217 194.54 96.4037 192.593 96.4037 190.38C96.4037 187.523 95.886 185.238 94.8505 183.524C93.8149 181.774 92.333 180.488 90.4048 179.667C88.4766 178.846 86.1913 178.435 83.5489 178.435H75.3004Z" fill="#CF772D"/>
</svg>
